PathFileType   4   (X/Y/Z)
DataRate  CameraRate  NumFrames  NumMarkers  Units  OrigDataRate  OrigDataStartFrame  OrigNumFrames  
  120.0      120.0        11         37         mm      120.0          14        105
Frame#      Time                    midhip                           hip_r                           hip_l                          knee_r                          knee_l                         ankle_r                         ankle_l                         midasis                          asis_r                          asis_l                          psis_r                          psis_l                    epicondLat_r                    epicondLat_l                    epicondMed_r                    epicondMed_l                  malleolusLat_r                  malleolusLat_l                 malleolusMedv_r                 malleolusMedv_l                    sternalnotch                  xyphoidprocess                            neck                           toe_r                           toe_l                     thighwand_r                     thighwand_l                     upperleg1_r                     upperleg1_l                     upperleg2_r                     upperleg2_l                     shankwand_r                     shankwand_l                     lowerleg1_r                     lowerleg1_l                   subclavicle_r                   subclavicle_l            
              X1          Y1          Z1          X2          Y2          Z2          X3          Y3          Z3          X4          Y4          Z4          X5          Y5          Z5          X6          Y6          Z6          X7          Y7          Z7          X8          Y8          Z8          X9          Y9          Z9          X10          Y10          Z10          X11          Y11          Z11          X12          Y12          Z12          X13          Y13          Z13          X14          Y14          Z14          X15          Y15          Z15          X16          Y16          Z16          X17          Y17          Z17          X18          Y18          Z18          X19          Y19          Z19          X20          Y20          Z20          X21          Y21          Z21          X22          Y22          Z22          X23          Y23          Z23          X24          Y24          Z24          X25          Y25          Z25          X26          Y26          Z26          X27          Y27          Z27          X28          Y28          Z28          X29          Y29          Z29          X30          Y30          Z30          X31          Y31          Z31          X32          Y32          Z32          X33          Y33          Z33          X34          Y34          Z34          X35          Y35          Z35          X36          Y36          Z36          X37          Y37          Z37          

	14	0.23333	1472.394	768.067	-295.060	1464.647	764.158	-238.292	1480.141	771.976	-351.828	1508.895	410.990	-208.219	1485.931	425.650	-333.580	1274.262	157.460	-224.608	1476.341	65.314	-323.821	1505.322	840.915	-286.237	1505.629	839.722	-174.855	1505.015	842.107	-397.620	1329.055	866.066	-253.063	1330.903	864.817	-307.140	1512.528	415.650	-148.688	1509.612	415.282	-392.803	1535.343	410.476	-271.631	1497.951	422.385	-277.616	1263.985	164.495	-189.236	1470.909	64.492	-359.906	1276.372	148.632	-257.075	1470.391	67.416	-290.606	1494.459	1190.763	-305.475	1501.116	1088.818	-307.759	1388.728	1262.589	-297.294	1316.743	86.969	-204.395	1565.567	45.507	-321.721	1619.803	579.811	-172.443	1593.883	578.475	-410.275	1555.233	604.864	-145.961	1562.927	623.493	-348.241	1558.314	547.015	-149.235	1560.997	565.002	-338.459	1436.042	165.622	-171.430	1481.394	161.635	-452.776	1372.264	205.450	-204.954	1477.762	157.354	-373.570	1498.684	1191.201	-249.637	1496.064	1190.789	-355.302
	15	0.24167	1480.979	769.283	-295.196	1473.138	765.667	-238.421	1488.820	772.898	-351.971	1524.027	413.493	-208.918	1489.162	425.499	-333.502	1297.356	153.159	-224.389	1476.306	65.341	-323.755	1513.966	842.126	-286.684	1514.104	841.453	-175.361	1513.829	842.799	-398.006	1337.443	867.516	-253.400	1339.817	866.067	-307.590	1528.777	417.979	-149.324	1511.726	415.290	-392.729	1550.195	413.478	-272.779	1501.923	422.612	-276.540	1286.979	159.945	-188.998	1470.930	64.547	-359.848	1299.639	143.191	-256.535	1470.241	67.743	-290.572	1503.168	1191.865	-305.674	1509.626	1089.907	-307.927	1397.767	1263.783	-297.062	1343.269	85.740	-204.167	1565.540	45.465	-321.609	1632.502	583.954	-173.477	1598.864	577.074	-410.342	1567.942	607.897	-146.829	1568.715	622.698	-348.265	1571.782	550.089	-150.218	1566.200	564.337	-338.264	1458.697	166.255	-171.832	1482.170	161.602	-452.816	1394.021	202.942	-205.270	1478.302	157.518	-373.759	1507.339	1192.308	-249.999	1504.822	1191.876	-355.332
	16	0.25000	1489.509	770.375	-295.388	1481.596	767.014	-238.608	1497.421	773.736	-352.169	1539.460	415.060	-209.656	1491.468	425.912	-333.648	1320.941	148.330	-224.130	1476.319	65.367	-323.725	1522.583	843.206	-287.133	1522.602	843.005	-175.909	1522.563	843.407	-398.358	1345.916	868.822	-253.601	1348.543	867.278	-307.875	1544.732	420.209	-150.012	1513.732	415.282	-392.797	1565.326	414.734	-271.849	1504.718	423.346	-275.817	1310.524	154.792	-188.690	1470.952	64.594	-359.820	1323.291	138.153	-256.218	1470.250	68.051	-290.564	1511.903	1192.845	-305.822	1518.211	1090.876	-308.011	1406.721	1264.847	-297.300	1370.285	84.217	-204.107	1565.532	45.458	-321.547	1644.913	587.882	-174.446	1603.757	575.648	-410.490	1580.006	610.611	-147.787	1574.627	621.705	-348.525	1584.872	552.867	-150.649	1571.190	563.991	-338.379	1481.746	166.792	-172.523	1482.791	161.576	-452.877	1415.859	201.149	-205.696	1478.861	157.651	-373.985	1515.918	1193.307	-250.014	1513.697	1192.831	-355.597
	17	0.25833	1498.044	771.327	-295.609	1490.082	768.174	-238.824	1506.006	774.481	-352.395	1554.887	416.740	-210.451	1493.340	427.150	-333.937	1344.989	143.075	-223.861	1476.393	65.386	-323.723	1531.185	844.137	-287.591	1531.151	844.351	-176.494	1531.218	843.923	-398.687	1354.500	869.926	-253.670	1357.123	868.417	-308.013	1560.387	422.329	-150.721	1515.702	415.232	-392.995	1580.214	417.286	-272.845	1506.868	423.056	-277.163	1334.596	149.147	-188.345	1470.977	64.629	-359.811	1347.471	134.595	-256.395	1470.610	68.311	-290.569	1520.689	1193.607	-305.692	1526.814	1091.623	-307.706	1415.743	1265.721	-297.942	1397.723	82.448	-204.181	1565.534	45.480	-321.520	1657.032	591.572	-175.339	1608.578	574.214	-410.735	1591.615	612.813	-148.078	1580.448	620.327	-348.175	1597.644	555.426	-151.197	1575.961	563.285	-338.662	1505.179	167.297	-173.476	1483.249	161.547	-452.945	1438.213	200.433	-205.617	1479.622	157.648	-374.273	1524.334	1194.136	-249.528	1522.813	1193.522	-355.784
	18	0.26667	1506.641	772.091	-295.828	1498.682	769.108	-239.033	1514.600	775.074	-352.623	1569.391	419.005	-211.236	1494.907	427.740	-334.365	1369.473	137.504	-223.608	1476.535	65.393	-323.736	1539.786	844.902	-288.057	1539.771	845.475	-177.101	1539.801	844.328	-399.012	1363.216	870.798	-253.627	1365.608	869.435	-308.033	1575.722	424.337	-151.428	1517.704	415.120	-393.292	1593.995	421.084	-275.280	1508.931	423.304	-276.749	1359.161	143.131	-187.995	1471.007	64.650	-359.807	1372.174	129.751	-256.340	1471.098	68.475	-290.573	1529.376	1194.191	-305.397	1535.165	1092.185	-307.312	1424.845	1266.522	-298.487	1425.514	80.487	-204.349	1565.542	45.522	-321.509	1668.855	595.004	-176.177	1613.340	572.774	-411.079	1603.092	615.000	-148.003	1586.234	618.855	-347.968	1610.055	557.982	-151.927	1580.653	562.307	-338.522	1528.961	167.839	-174.637	1483.561	161.511	-453.002	1461.003	199.114	-206.147	1480.371	157.593	-374.499	1532.631	1194.741	-249.025	1531.849	1194.069	-355.656
	19	0.27500	1515.252	772.670	-296.068	1507.356	769.833	-239.256	1523.148	775.508	-352.879	1583.397	420.630	-211.952	1497.044	427.979	-334.852	1394.370	131.724	-223.396	1476.736	65.387	-323.743	1548.399	845.489	-288.530	1548.476	846.378	-177.711	1548.322	844.601	-399.348	1372.059	871.429	-253.494	1374.117	870.251	-307.950	1590.714	426.226	-152.115	1519.778	414.935	-393.632	1607.285	422.755	-275.024	1511.984	423.906	-275.617	1384.185	136.870	-187.674	1471.041	64.664	-359.789	1397.298	124.183	-256.189	1471.532	68.568	-290.561	1538.110	1194.713	-305.108	1543.772	1092.703	-307.159	1433.652	1267.163	-298.976	1453.589	78.385	-204.574	1565.551	45.570	-321.493	1680.373	598.157	-177.005	1618.051	571.317	-411.513	1614.689	617.168	-148.451	1592.110	618.056	-348.291	1622.395	560.307	-152.239	1585.583	561.153	-338.467	1553.038	168.491	-175.927	1483.754	161.466	-453.033	1483.938	197.170	-206.806	1480.951	157.526	-374.642	1541.092	1195.167	-248.877	1540.827	1194.668	-355.200
	20	0.28333	1523.913	773.033	-296.339	1516.116	770.319	-239.508	1531.711	775.747	-353.171	1598.955	421.727	-212.611	1501.070	428.133	-335.307	1419.681	125.840	-223.239	1476.979	65.373	-323.728	1557.033	845.896	-289.009	1557.278	847.071	-178.313	1556.788	844.721	-399.705	1380.978	871.853	-253.288	1382.753	870.805	-307.784	1605.331	427.990	-152.776	1521.901	414.679	-393.956	1622.016	424.051	-274.668	1517.169	422.920	-276.812	1409.642	130.490	-187.409	1471.076	64.676	-359.741	1422.680	119.287	-256.228	1472.135	68.621	-290.518	1547.233	1195.130	-304.991	1553.133	1093.137	-307.219	1442.132	1267.640	-299.358	1481.895	76.204	-204.817	1565.549	45.602	-321.451	1691.579	601.011	-177.877	1622.716	569.826	-412.027	1625.901	619.156	-148.926	1597.831	617.432	-348.732	1634.928	562.376	-152.563	1590.996	559.948	-339.191	1577.330	169.314	-177.237	1483.864	161.414	-453.025	1506.974	195.091	-206.735	1481.621	157.368	-374.771	1550.046	1195.484	-248.830	1550.099	1195.187	-354.995
	21	0.29167	1532.606	773.191	-296.606	1524.932	770.599	-239.753	1540.281	775.783	-353.460	1613.894	422.906	-213.241	1504.708	428.059	-335.662	1445.423	119.952	-223.135	1477.239	65.361	-323.675	1565.693	846.124	-289.493	1566.181	847.571	-178.899	1565.205	844.677	-400.087	1389.916	872.115	-253.024	1391.522	871.099	-307.555	1619.542	429.613	-153.405	1524.029	414.369	-394.215	1635.967	426.082	-275.464	1521.256	421.770	-278.491	1435.516	124.115	-187.208	1471.110	64.699	-359.651	1448.546	113.774	-256.179	1472.788	68.626	-290.434	1556.477	1195.358	-305.015	1562.531	1093.379	-307.450	1450.821	1267.995	-299.646	1510.384	74.022	-205.030	1565.521	45.590	-321.365	1702.464	603.548	-178.835	1627.339	568.288	-412.613	1636.358	620.893	-149.002	1603.279	615.921	-349.352	1646.785	564.111	-152.972	1596.035	558.757	-340.229	1601.727	170.352	-178.443	1483.935	161.359	-452.976	1530.127	192.757	-206.965	1482.306	157.188	-374.817	1559.164	1195.595	-248.752	1559.455	1195.528	-355.107
	22	0.30000	1541.304	773.185	-296.833	1533.788	770.729	-239.952	1548.821	775.641	-353.714	1626.321	423.623	-213.844	1505.868	428.574	-335.825	1471.604	114.159	-223.067	1477.495	65.362	-323.576	1574.381	846.178	-289.975	1575.176	847.892	-179.456	1573.586	844.464	-400.493	1398.829	872.265	-252.724	1400.423	871.131	-307.266	1633.318	431.073	-153.999	1526.140	414.034	-394.386	1647.689	426.196	-274.114	1521.694	422.236	-278.940	1461.789	117.858	-187.064	1471.139	64.743	-359.513	1474.971	107.883	-256.083	1473.330	68.542	-290.299	1565.462	1195.353	-304.930	1571.443	1093.373	-307.520	1459.783	1268.108	-300.045	1539.013	71.910	-205.175	1565.445	45.504	-321.219	1713.017	605.747	-179.915	1631.928	566.707	-413.249	1646.827	622.276	-149.656	1608.492	613.994	-349.868	1657.876	565.610	-153.128	1599.951	557.536	-340.722	1626.116	171.634	-179.452	1484.003	161.307	-452.890	1553.328	190.632	-207.627	1482.898	157.093	-374.644	1567.825	1195.482	-248.799	1568.729	1195.613	-354.856
	23	0.30833	1549.955	773.066	-297.018	1542.639	770.760	-240.105	1557.272	775.372	-353.931	1637.254	424.423	-214.436	1507.116	429.455	-335.833	1498.211	108.561	-223.019	1477.741	65.387	-323.430	1583.093	846.065	-290.444	1584.245	848.044	-179.979	1581.942	844.085	-400.910	1407.720	872.318	-252.406	1409.406	870.929	-306.934	1646.645	432.347	-154.554	1528.233	413.705	-394.464	1657.942	426.214	-272.988	1522.823	422.748	-279.136	1488.433	111.821	-186.963	1471.168	64.817	-359.329	1501.903	102.179	-256.001	1473.746	68.417	-290.120	1574.235	1195.227	-304.460	1579.930	1093.226	-306.858	1469.057	1268.090	-300.431	1567.738	69.931	-205.230	1565.307	45.332	-321.013	1723.242	607.585	-181.127	1636.492	565.096	-413.908	1657.451	623.565	-150.555	1613.846	612.520	-350.036	1668.663	566.905	-153.535	1604.066	556.313	-340.902	1650.405	173.174	-180.219	1484.097	161.268	-452.772	1576.655	188.740	-208.268	1483.421	157.186	-374.252	1576.212	1195.434	-248.670	1577.846	1195.403	-354.006
	24	0.31667	1558.592	772.827	-297.167	1551.502	770.673	-240.220	1565.683	774.981	-354.115	1648.100	425.364	-214.988	1508.223	430.779	-335.783	1525.197	103.255	-222.978	1477.978	65.439	-323.242	1591.822	845.787	-290.895	1593.362	848.025	-180.476	1590.281	843.550	-401.314	1416.588	872.284	-252.081	1418.429	870.530	-306.560	1659.513	433.404	-155.068	1530.313	413.398	-394.460	1667.568	427.297	-273.235	1524.444	423.655	-278.903	1515.404	106.094	-186.891	1471.200	64.923	-359.103	1529.100	97.260	-256.005	1474.030	68.390	-289.903	1583.052	1195.096	-303.948	1588.554	1093.082	-306.214	1478.315	1267.966	-300.695	1596.533	68.143	-205.184	1565.112	45.094	-320.764	1733.172	609.054	-182.454	1641.046	563.465	-414.574	1667.507	624.829	-150.807	1619.678	611.580	-350.243	1679.133	567.904	-153.970	1608.478	554.933	-340.958	1674.517	174.979	-180.750	1484.228	161.250	-452.629	1600.139	186.974	-208.303	1483.847	157.372	-373.856	1584.906	1195.364	-248.149	1586.772	1195.207	-353.491
